<?xml version="1.0" standalone="no"?><!DOCTYPE svg PUBLIC "-//W3C//DTD SVG 1.1//EN" "http://www.w3.org/Graphics/SVG/1.1/DTD/svg11.dtd"><svg t="1614916680996" class="icon" viewBox="0 0 1024 1024" version="1.1" xmlns="http://www.w3.org/2000/svg" p-id="1379" xmlns:xlink="http://www.w3.org/1999/xlink" width="64" height="64"><defs><style type="text/css"></style></defs><path d="M578.410667 593.92c-4.117333 0-7.872 0.021333-11.605334-0.021333-1.045333-0.021333-2.069333 0.085333-2.901333 0.682666-0.917333 0.64-1.92 1.429333-0.042667 2.752-5.056 0.426667-9.642667 0.810667-14.229333 1.173334-0.597333 0.042667-1.237333-0.106667-1.770667 0.085333-0.554667 0.192-1.514667 0.234667-1.429333 1.088 0.064 0.597333 0.682667 0.917333 1.365333 0.874667 0.490667-0.021333 0.981333 0 1.472 0.213333-2.666667 0.426667-5.376 0.128-8.021333 0.725333-0.96 0.213333-1.941333 0.469333-2.901333 0.725334-1.642667 0.448-1.429333 1.28 0.298666 2.410666h-9.088c-1.877333 0-3.221333 0.832-3.050666 2.794667 0.106667 1.237333-0.597333 0.682667-1.002667 0.789333-2.56 0.682667-5.205333 0.512-7.829333 0.512-1.578667 0-2.645333 0.469333-2.496 2.325334 0.085333 1.109333-0.789333 1.344-1.557334 1.216-3.456-0.576-6.826667 1.344-10.389333 0.149333-1.408-0.469333-3.861333-0.490667-3.221333 2.581333 0.106667 0.554667-0.448 0.768-0.981334 0.896-1.28 0.341333-2.090667 0.938667-1.706666 2.538667 0.298667 1.216-0.768 1.024-1.472 1.045333-1.792 0.021333-3.584-0.042667-5.376 0.021334-2.624 0.085333-3.2 0.853333-2.709334 3.456-2.666667 0.362667-5.418667-0.213333-8.064 0.576-0.938667 0.277333-2.197333 0.128-2.432 1.28-0.256 1.365333 1.194667 1.28 2.090667 1.621333-2.005333 0.362667-3.968 0-5.845333 0.704-0.874667 0.32-1.962667 0.426667-2.346667 1.301333-0.448 1.045333 1.386667 0.704 1.365333 1.792-2.816 0-5.610667 0.064-8.405333-0.021333-1.578667-0.042667-2.517333 0.384-2.304 2.133333 0.170667 1.365333-0.597333 1.514667-1.685333 1.493334-2.304-0.042667-4.608 0.042667-6.912-0.021334-1.834667-0.042667-2.730667 0.832-2.368 2.538667 0.277333 1.301333-0.490667 1.024-1.088 1.024-1.024 0-1.984 0.085333-2.944 0.533333-1.429333 0.661333-1.941333 1.493333-0.810667 2.922667-2.346667 0.426667-4.693333 0.085333-7.04 0.512-2.176 0.405333-2.602667 1.130667-1.984 3.093333-1.92 0.192-3.84 0.085333-5.717333 0.576-0.789333 0.213333-1.877333 0.469333-1.856 1.045334 0.256 3.648-2.688 1.877333-4.032 2.197333-1.834667 0.426667-3.733333 0.128-3.370667 2.922667 0.128 0.938667-0.682667 0.533333-1.002667 0.512-1.344-0.085333-2.410667 0.448-3.605333 0.96-1.450667 0.64-1.408 1.429333-0.618667 2.645333-2.197333 0-4.309333 0.042667-6.442666-0.021333-1.685333-0.042667-2.816 0.448-2.858667 2.368-0.064 1.877333-1.536 1.706667-2.773333 1.728-4.608 0.042667-9.216 0.149333-13.824-0.021334-2.730667-0.106667-5.376 0.533333-8.085334 0.64-0.789333 0.021333-2.730667-0.021333-1.472 2.005334 0.426667 0.682667 0.149333 0.938667-1.237333 0.96-3.413333 0.042667-6.826667 0.042667-10.24 0-1.024 0-1.984 0.213333-2.965333 0.490666-2.005333 0.533333-2.752 1.258667-0.042667 3.114667h-7.914667c-5.973333 0-11.946667-0.021333-17.92 0.021333-2.368 0.021333-3.370667 1.386667-2.453333 3.562667h-19.712c-5.034667 0-10.069333-0.021333-15.104 0-2.837333 0.021333-3.456 0.768-2.965333 3.349333-4.608 0.874667-9.237333 1.386667-13.866667 0.234667-0.576-0.149333-1.386667 0.277333-1.088-1.045333 0.384-1.728-0.533333-2.602667-2.346667-2.56-1.450667 0.042667-2.88 0-4.629333 0 0.896-1.514667 0.789333-2.432-0.896-2.944-0.490667-0.149333-0.938667-1.237333-0.981333-1.92-0.106667-2.645333-0.042667-5.290667-0.064-7.936 0-1.258667 0.768-1.621333 1.856-1.536 2.730667 0.213333 5.354667-0.661333 8.085333-0.576 2.432 0.085333 3.093333-1.002667 2.304-2.794667 3.882667-0.96 7.893333-0.725333 11.861333-0.704 1.493333 0.021333 2.346667-0.704 2.176-2.005333-0.192-1.472 0.490667-1.6 1.536-1.6 1.365333 0 2.773333 0.170667 4.074667-0.085334 1.045333-0.213333 2.688-0.341333 1.813333-2.346666-0.576-1.258667 0.512-1.152 1.237334-1.152 2.048-0.021333 4.096 0 6.144 0 3.136 0 3.605333-0.533333 3.114666-3.584 2.410667 0 4.8 0.021333 7.168 0 2.88-0.042667 3.392-0.725333 2.730667-3.434667 1.728-0.448 3.541333 0.192 5.269333-0.384 2.304-0.768 2.389333-0.896 1.301334-3.349333 3.477333 0 6.848 0.064 10.218666-0.021334 2.517333-0.064 3.157333-1.130667 2.026667-3.562666h8.149333c3.114667 0 3.541333-0.490667 3.285334-3.584 1.877333 0 3.754667 0.085333 5.632-0.021334 2.474667-0.149333 3.072-1.216 2.048-3.456 1.493333-0.256 2.986667-0.149333 4.48-0.512 1.92-0.469333 2.666667-1.130667 1.578666-3.157333h8.746667c2.901333-0.021333 3.392-0.576 3.029333-3.584 2.410667 0 4.778667-0.021333 7.168 0 1.749333 0.021333 3.072-0.362667 2.752-2.538667-0.192-1.258667 0.426667-1.472 1.578667-1.621333 1.365333-0.170667 3.306667-0.426667 1.664-3.008 1.962667 0 3.712 0.106667 5.44-0.021333 1.792-0.128 3.669333-0.448 3.434667-2.922667-0.085333-0.810667 0.384-0.618667 0.704-0.597333 1.621333 0.106667 3.114667-0.618667 4.757333-0.597334 1.386667 0.021333 3.2-0.042667 2.773333-2.517333-0.128-0.768 0.853333-0.981333 1.6-0.981333 1.28 0 2.581333 0.149333 3.84-0.064 1.365333-0.213333 3.242667-0.064 2.709334-2.56-0.234667-1.066667 0.853333-0.981333 1.557333-0.96 1.322667 0.064 2.538667-0.106667 3.52-1.088 0.277333-0.277333 0.725333-0.832 0.618667-1.002667-1.642667-2.794667 1.002667-1.258667 1.578666-1.429333 0.853333-0.256 1.856-0.106667 2.794667-0.064 1.258667 0.042667 2.048-0.448 1.877333-1.770667-0.256-1.813333 0.768-1.941333 2.112-1.834667 0.512 0.042667 1.024 0 1.536 0 2.730667-0.042667 3.242667-0.704 2.645334-3.349333 5.226667-0.725333 5.504-0.96 4.266666-3.797333h5.12c2.922667-0.021333 3.114667-0.298667 2.453334-3.370667 1.301333-0.704 3.882667 0.725333 3.968-1.621333 0.128-3.008 1.984-2.133333 3.52-2.154667 1.706667-0.042667 3.349333-0.042667 3.093333-2.496-0.128-1.216 0.746667-1.088 1.514667-1.109333 2.474667 0 4.949333-0.106667 7.424 0.021333 2.090667 0.106667 2.816-1.024 2.176-2.624-0.576-1.450667-0.106667-2.496 0.32-3.733333 0.384 0.405333 0.704 0.746667 1.216 1.28 0.128-1.088-0.384-1.962667 1.28-2.325334 1.834667-0.405333 0.490667-2.389333 0.533333-3.84 2.197333 0.768 3.498667 0.234667 3.434667-2.261333 0-0.405333 0.149333-0.810667 0.234666-1.216 3.306667 0.938667 1.941333-4.074667 4.778667-3.776 0.341333 0.042667 0.704 0.042667 1.024-0.042667 2.069333-0.554667 0.469333-2.645333 1.514667-3.648 0.832-0.810667 3.477333 0.128 2.410666-2.453333-0.277333-0.682667-0.128-0.917333 0.533334-1.024 0.981333-0.128 1.237333-1.088 1.194666-1.685333-0.106667-1.642667 0.576-2.133333 2.069334-1.92 0.426667 0.064 1.066667-0.064 0.981333-0.533334-0.490667-2.410667 0.96-2.965333 2.837333-3.584 1.216-0.405333 0.981333-1.770667 0.533334-2.858666 3.413333-0.341333 3.434667-0.341333 3.882666-4.778667 0.085333-0.938667 0.128-1.898667 0-2.816-0.298667-2.026667 0.341333-3.242667 2.496-3.328 1.834667-0.085333 0.96-1.472 1.088-2.304 0.149333-1.024-0.384-2.410667 1.642667-1.834667 1.024 0.298667 1.194667-0.832 1.344-1.472 0.768-3.328 0.64-6.741333 0.597333-10.133333-0.021333-1.450667 0.341333-2.346667 1.984-2.197333 0.725333 0.064 1.152-0.234667 1.088-1.002667-0.149333-2.048 0.597333-3.989333 0.554667-6.037333-0.106667-9.045333 0.085333-18.090667-0.085333-27.136-0.128-6.848-0.618667-13.696-1.024-20.544-0.064-1.024-0.490667-2.048-0.832-3.477334-1.877333 2.858667-0.810667 5.738667-1.28 8.362667-0.533333 0.021333-0.341333-0.384-0.384-0.618667-0.042667-0.341333-0.021333-0.682667-0.021334-1.024 0-5.802667-0.085333-11.605333 0.042667-17.408 0.042667-2.048-0.533333-4.010667-0.554667-6.037333-0.021333-0.789333-0.426667-1.472-1.194666-1.322667-2.197333 0.384-1.813333-1.045333-1.877334-2.346666-0.064-1.429333-0.192-2.858667-0.554666-4.224-0.490667-1.792-1.770667-1.130667-2.986667-0.661334-0.085333-3.242667 0.192-6.485333-0.533333-9.664-0.128-0.597333 0.234667-1.621333-0.810667-1.536-2.688 0.213333-2.261333-1.621333-2.261333-3.221333v-1.024c0-2.88 0-2.88-2.730667-3.093333 0.341333-2.730667-0.192-3.434667-2.730667-3.456-4.522667-0.021333-9.045333 0.021333-13.568-0.021334-0.96 0-1.813333 0.234667-2.688 0.533334-1.514667 0.512-2.368 1.28-0.981333 2.944-2.688 0.341333-5.269333-0.277333-7.68 0.725333-1.322667 0.554667-2.666667 1.088-0.917333 2.922667h-44.586667c0.896-1.856 0.384-2.688-1.621333-3.050667-5.568-1.024-11.178667-0.085333-16.768-0.597333 0.853333-1.792 0.341333-2.602667-1.642667-3.008-2.773333-0.597333-5.568-0.341333-8.362667-0.490667 0.234667-0.810667 0.874667-0.384 1.301334-0.490667 0.554667-0.128 0.981333-0.426667 1.045333-0.938666 0.085333-0.576-0.405333-0.938667-0.917333-1.045334-1.066667-0.234667-2.133333-0.490667-3.2-0.533333-5.504-0.213333-11.029333-0.405333-16.554667-0.512-1.152-0.021333-1.706667-0.128-1.28-1.450667 0.341333-1.045333-0.810667-1.578667-1.28-1.493333-2.389333 0.448-1.834667-1.216-1.749333-2.368 0.170667-2.496-0.512-5.034667 0.661333-7.509333 0.554667-1.194667 1.045333-1.578667 2.346667-1.557334 5.290667 0.064 10.581333 0.064 15.872 0 2.773333-0.021333 3.712-1.045333 3.477333-3.562666h8.192c2.901333-0.021333 3.392-0.576 3.050667-3.456 2.496-0.426667 5.034667-0.042667 7.594666-0.490667 2.24-0.384 2.709333-1.173333 2.069334-3.093333 6.656-0.448 7.893333-1.088 6.869333-3.690667 3.157333 0.149333 6.229333-0.832 9.386667-0.554667 1.28 0.128 2.474667-0.533333 2.346666-1.706666-0.256-2.133333 1.066667-1.813333 2.218667-1.856 2.112-0.064 4.224 0.149333 6.293333-0.512 0.618667-0.192 1.365333-0.448 1.237334-1.024-0.661333-2.794667 1.365333-1.962667 2.666666-2.048 1.109333-0.064 2.218667 0 3.328-0.021334 2.944-0.021333 3.114667-0.277333 2.474667-3.349333 4.544-0.661333 4.629333-0.746667 4.074667-3.818667 2.922667 0 5.824 0.021333 8.704 0 2.517333-0.021333 3.114667-0.810667 2.432-3.584 2.581333 0 5.098667-0.021333 7.594666 0.021334 1.301333 0.021333 2.368-0.32 2.048-1.813334-0.405333-1.898667 0.533333-2.090667 2.048-2.368 2.112-0.362667 2.325333-1.216 1.045334-2.986666 2.197333 0 4.330667 0.021333 6.442666 0 1.813333-0.021333 3.392-0.277333 2.944-2.773334-0.234667-1.28 0.874667-0.768 1.365334-0.768 2.048 0.042667 3.968-0.362667 5.952-0.938666 2.474667-0.725333 1.088-1.514667 0.362666-2.517334 2.197333-0.362667 4.522667-0.725333 6.933334-0.725333 2.261333 0 2.773333-0.938667 1.984-2.88 5.034667-0.384 7.061333-1.194667 5.589333-3.733333h6.442667c1.792 0 3.050667-0.768 2.858666-2.645334-0.106667-0.981333 0.213333-1.002667 0.832-0.896 1.472 0.213333 2.816-0.469333 4.245334-0.490666 0.896-0.021333 1.834667-0.448 1.856-1.066667 0.106667-3.008 2.453333-2.154667 4.074666-2.56 1.386667-0.341333 3.2-0.106667 2.794667-2.581333-0.128-0.768 0.853333-0.981333 1.6-1.002667 0.938667-0.021333 1.898667 0.106667 2.816-0.042667 0.981333-0.149333 2.474667-0.490667 2.261333-1.557333-0.512-2.666667 1.28-1.92 2.517334-1.984 1.536-0.064 3.093333 0.149333 4.608-0.064 1.408-0.192 3.349333-0.256 2.389333-2.688-0.32-0.810667 0.298667-0.789333 0.810667-0.832 0.938667-0.042667 1.898667 0.085333 2.794666-0.149333 1.749333-0.426667 3.584-0.981333 1.514667-3.349334 7.296-0.426667 7.957333-0.768 6.826667-3.690666 2.432 0 4.8 0.042667 7.168 0 2.794667-0.042667 3.392-0.746667 3.093333-3.477334 6.357333-0.384 6.805333-0.661333 5.653333-3.562666 5.013333-0.298667 7.637333-0.469333 6.08-3.712 2.282667 0 4.48 0.064 6.677334-0.021334 1.984-0.085333 2.837333-1.536 1.984-3.477333 2.346667-0.234667 4.736 0.256 6.933333-0.853333 1.749333-0.874667 1.792-1.002667 0.341333-2.688 1.322667-0.298667 2.709333 0.149333 3.925334-0.682667 1.045333-0.746667 3.008-0.981333 0.896-2.858667 2.474667-0.426667 4.650667-0.170667 6.848-0.533333 2.176-0.384 2.624-1.130667 1.984-3.114667 6.186667-0.106667 12.245333-1.109333 18.453333-0.213333 4.010667 0.576 8.170667 0.085333 12.266667 0.149333 0.469333 0 1.429333-0.64 1.408 0.64-0.064 2.496 1.792 2.794667 3.562666 2.858667 3.157333 0.128 6.314667 0.042667 9.856 0.042667-1.749333 1.450667-1.237333 2.090667 0.405334 2.645333 1.514667 0.512 2.965333 1.194667 4.629333 0.896-0.32 2.666667 0.469333 3.648 2.794667 3.605333 1.92-0.042667 3.84 0 5.781333 0-0.768 2.794667 0.341333 3.498667 5.824 3.669334-1.258667 1.728-0.042667 3.328 1.130667 3.306666 3.498667-0.106667 2.922667 2.602667 3.157333 4.330667 0.256 1.898667 0.192 3.434667 2.752 3.093333 1.045333-0.128 0.938667 0.725333 0.938667 1.386667 0.021333 2.56-0.064 5.12 0.042666 7.68 0.064 1.408-0.533333 1.664-1.792 1.685333-2.56 0.064-3.029333 0.746667-2.496 3.413334-1.941333-0.021333-3.477333 0.448-3.050666 2.901333 0.192 1.088-0.682667 0.810667-1.152 0.768-1.472-0.106667-2.858667 0.213333-4.181334 0.746667-0.469333 0.192-1.344 0.277333-1.152 1.109333 0.490667 2.282667-1.152 2.176-2.517333 2.24-1.557333 0.064-2.688 0.469333-2.538667 2.325333 0.128 1.493333-1.258667 1.109333-1.813333 1.173334-1.962667 0.277333-4.16-0.128-3.989333 3.029333 0.064 0.981333-1.045333 0.597333-1.642667 0.64-2.197333 0.106667-4.437333-0.32-6.506667 0.618667-0.64 0.277333-1.6 0.106667-1.92 0.938666-0.469333 1.237333 1.28 0.768 1.536 2.048-2.154667 0-4.138667-0.021333-6.122666 0-0.853333 0.021333-1.706667 0.021333-2.538667 0.192-1.941333 0.384-3.093333 1.216-1.194667 3.392-1.941333 0-3.562667-0.042667-5.184 0.021334-2.432 0.106667-3.178667 1.216-2.304 3.562666-1.898667 0-3.776-0.021333-5.653333 0-2.858667 0.021333-3.349333 0.597333-2.858667 3.605334-2.666667-0.277333-5.248 0.298667-7.850666 0.490666-2.325333 0.149333-2.645333 0.682667-1.664 2.965334-6.336 0.405333-7.04 0.832-6.08 3.712-2.922667 0-5.845333-0.213333-8.725334 0.085333-1.514667 0.149333-4.181333-0.362667-3.541333 2.837333 0.234667 1.173333-0.768 0.661333-1.109333 0.64-2.901333-0.277333-5.717333 0.661333-8.618667 0.618667-1.770667-0.042667-2.538667 0.981333-1.365333 2.944-3.562667-0.085333-6.890667 0.725333-10.261334 1.237333-0.554667 0.085333-0.96-0.042667-1.408-0.149333-3.029333-0.661333-3.477333-0.298667-3.136 2.730667-2.816-0.426667-3.648 0.170667-3.797333 2.816-0.064 1.024-0.810667 0.576-1.237333 0.576-2.56 0.042667-5.12 0.021333-7.68 0.042666-1.813333 0.021333-3.008 0.981333-2.837334 2.752 0.128 1.194667-0.533333 0.661333-0.938666 0.832-2.026667 0.874667-4.352 0.192-6.378667 1.237334-1.514667 0.789333-1.386667 1.429333 0.021333 2.112-2.666667 0.96-5.44 0.64-8.170666 0.746666-1.557333 0.064-3.285333 0.064-2.432 2.602667 0.32 0.917333-0.682667 0.896-1.365334 0.96-1.322667 0.149333-2.858667-0.533333-3.968 0.384-1.365333 1.130667 0.106667 2.517333 0.085334 3.818667-0.021333 1.194667-1.194667 3.754667 2.069333 2.752 0.426667-0.128 0.533333 0.789333 0.277333 0.938666-1.216 0.618667-0.938667 1.344-0.085333 1.834667 1.834667 1.066667 1.109333 4.266667 3.904 4.522667 0.512 0.042667 0.448 0.853333 0.405333 1.365333-0.128 1.557333 0.362667 2.496 2.112 2.325333 0.426667-0.042667 1.088 0.192 0.896 0.597334-0.981333 1.92 1.877333 2.794667 1.173334 4.586666-0.042667 0.128 0.213333 0.554667 0.384 0.597334 3.776 1.002667 2.261333 4.757333 3.648 6.997333 0.277333 0.448 0.490667 1.066667 1.024 0.938667 2.026667-0.469333 1.472 1.024 1.493333 1.941333 0.021333 1.557333-0.298667 3.178667 2.218667 2.794667 1.066667-0.149333 1.386667 0.725333 1.386666 1.706666-0.021333 1.962667-0.021333 3.925333 0 5.888 0.021333 3.136 0.341333 3.370667 3.584 2.837334v31.232c0 5.781333 0.469333 11.562667 0.384 17.301333-0.234667 13.717333-0.341333 27.413333-0.384 41.130667 0 1.130667 0.298667 2.688-1.770666 1.536-0.106667-0.064-0.704 0.362667-0.682667 0.533333 0.149333 2.154667-1.216 3.989333-1.152 6.165333 0.128 5.546667 0.042667 11.093333 0.021333 16.64 0 0.768 0.042667 1.557333-0.170666 2.282667-0.298667 0.981333-0.853333 2.112 0.256 2.666667 1.066667 0.533333 2.346667 0.128 3.370666-0.576 1.28-0.853333 0.362667-1.749333-0.192-2.88h48.170667c0.682667 0 1.386667 0.064 2.048-0.021334 1.898667-0.277333 2.496-1.450667 1.6-3.562666h15.082667c10.901333 0.021333 21.781333-0.874667 32.661333-0.490667 0.981333 0.042667 2.005333-0.128 2.538667-0.853333 0.618667-0.853333-0.490667-1.408-1.002667-2.154667 4.928-0.32 9.92 0.725333 14.72-2.112-1.088-0.490667-1.92-0.853333-3.157333-1.386667h78.229333c-1.770667 1.514667-0.917333 2.282667 0.704 2.922667 2.453333 0.981333 5.034667 0.170667 7.530667 0.618667-0.874667 2.218667-0.106667 3.392 2.368 3.434666 3.754667 0.064 7.509333 0.021333 11.264 0.021334-0.597333 2.602667 0.128 3.541333 2.837333 3.584 3.157333 0.042667 6.314667 0 9.493333 0-0.746667 2.709333-0.149333 3.477333 3.008 3.562666 3.306667 0.085333 6.613333 0.021333 9.962667 0.021334 0.128 1.28-1.578667 0.832-1.408 2.069333 1.877333 1.322667 4.181333 1.536 6.549333 1.536 1.088 0 2.346667-0.448 2.005334 1.728-0.234667 1.536 1.493333 1.792 2.773333 1.834667 2.304 0.064 4.608 0.021333 6.912 0.021333 1.344 0 2.453333 0.106667 2.005333 2.005333-0.234667 1.002667 0.448 1.578667 1.493334 1.578667 1.109333 0 2.154667 0.149333 3.221333 0.448 1.088 0.298667 2.218667-0.298667 2.154667 1.834667-0.042667 1.258667 1.941333 1.877333 3.498666 1.834666 0.810667-0.021333 1.792-0.362667 1.450667 1.28-0.192 0.938667 0.746667 1.728 1.770667 1.749334 1.536 0.021333 2.901333 1.024 4.522666 0.426666-0.469333 3.264-0.149333 3.562667 3.968 3.818667-0.32 2.88 0.170667 3.392 3.669334 3.562667-0.576 2.325333 0.192 3.712 2.794666 3.52 0.725333-0.042667 1.173333 0.192 1.109334 1.002666-0.085333 0.981333 0.106667 1.642667 1.344 1.6 0.896-0.021333 0.682667 0.789333 0.725333 1.344 0.597333 7.829333 0.661333 15.68 0 23.509334-0.042667 0.469333 0.106667 1.066667-0.618667 1.194666-1.834667 0.32-3.285333 0.96-2.752 3.285334 0.021333 0.064-0.32 0.298667-0.490666 0.298666-3.157333 0.064-2.154667 2.176-1.92 3.989334-1.706667 0.426667-4.330667-0.597333-3.925334 3.072 0.106667 0.896-2.88 0.618667-4.458666 0.618666-1.194667 0-0.789333-0.810667-0.768-1.578666 0.021333-1.301333-0.853333-2.005333-2.154667-1.941334-3.221333 0.149333-6.442667-0.064-9.664 0.192-2.197333 0.170667-4.501333-0.128-6.762667-0.213333-0.746667-0.021333-1.322667-0.362667-1.194666-1.258667 0.298667-2.026667-0.917333-2.346667-2.538667-2.325333-2.901333 0.042667-5.802667-0.085333-8.704 0.042667-1.472 0.064-2.794667-0.554667-4.224-0.554667-0.64 0-0.661333-0.128-0.64-0.832 0.021333-1.962667-1.28-2.752-3.157333-2.730667-4.608 0.021333-9.216 0.021333-13.824-0.021333-0.725333 0-2.069333 0.533333-1.109334-1.301333 0.362667-0.704-0.896-1.408-1.770666-1.728-2.816-1.002667-5.717333-0.405333-8.576-0.533334-1.514667-0.064-3.050667-0.021333-4.608-0.277333 2.709333-0.192 5.418667-0.234667 8-1.664-7.978667-0.597333-15.936-1.194667-23.978667-1.792 0.917333-2.325333-0.490667-2.901333-2.432-2.922667-5.866667-0.021333-11.690667-0.874667-17.578667-0.533333-0.896 0.042667-2.133333 0.426667-1.578666-1.408 0.298667-0.96-0.362667-1.472-1.408-1.685333-1.322667-0.256-2.624-0.512-3.989334-0.490667-7.381333 0.042667-14.784 0.021333-22.293333 0.021333 0.554667-0.96 2.218667-0.576 2.005333-1.706666-0.213333-1.152-1.642667-1.066667-2.538666-1.28-4.096-0.96-8.277333-0.512-12.416-0.597334-0.917333-0.021333-1.856 0-3.136 0 2.048-1.642667 1.152-2.410667-0.448-3.072-1.045333-0.448-2.112-0.512-3.221334-0.512-20.053333 0-40.106667-0.106667-60.16 0.128-3.093333 0.042667-6.186667-0.192-9.28-0.106666-1.856 0.042667-3.754667 0.149333-3.285333 2.88 0.213333 1.173333-0.725333 0.64-1.109333 0.64-2.602667 0.085333-5.226667-0.128-7.765334 0.810666-2.24 0.832-2.282667 0.746667-0.064 2.794667-5.653333 0-10.965333 0.042667-16.277333-0.021333-1.962667-0.021333-3.861333 0.149333-5.76 0.554666-1.578667 0.277333-2.218667 1.152-0.981333 2.986667zM153.962667 811.754667c-2.154667-0.597333-3.733333-0.426667-3.456 2.432 0.128 1.28-1.024 0.896-1.685334 0.874666-1.898667-0.042667-2.709333 0.64-2.112 2.624 0.362667 1.216-0.725333 2.176-0.725333 3.285334-0.021333 2.005333-1.493333 1.088-2.389333 1.301333-2.048 0.490667-0.96 3.072-1.685334 3.328-1.386667 0.490667-3.285333 0.682667-2.922666 2.304 0.405333 1.898667-0.490667 1.557333-1.450667 1.514667-1.536-0.064-1.813333 0.810667-1.834667 2.112-0.021333 1.130667 0.064 2.24-0.448 3.434666-0.490667 1.152-0.597333 1.877333-2.069333 1.685334-1.450667-0.192-1.002667 1.045333-1.045333 1.792-0.149333 3.626667-0.128 3.584-3.690667 4.096-3.264 0.469333-6.485333-0.085333-9.685333-0.362667-1.706667-0.149333-1.109333-1.834667-0.810667-2.602667 0.789333-2.154667 0.298667-3.114667-2.026667-2.965333-0.874667 0.064-1.237333-0.298667-1.194666-1.173333 0.064-1.792-0.725333-2.688-2.602667-2.410667-1.344 0.213333-1.514667-0.554667-1.493333-1.664 0.021333-2.325333 0.064-4.650667-0.085334-6.954667-0.128-2.133333-1.408-2.645333-3.498666-1.749333 0-2.922667-0.021333-5.717333 0-8.512s0.746667-6.144-1.386667-8.021333c-3.093333-2.709333-2.432-6.634667-4.266667-9.621334-0.042667-0.064-0.128-0.106667-0.277333-0.192-0.277333 1.024-0.298667 2.112-1.258667 3.157334 0-10.88-0.042667-21.525333 0.042667-32.170667 0.021333-1.728-0.554667-3.306667-0.661333-5.013333-0.042667-0.597333-0.597333-1.621333-0.981334-1.664-2.730667-0.192-1.962667-2.176-1.962666-3.690667-0.042667-5.205333 0-10.410667-0.021334-15.616 0-1.194667-0.085333-2.176 1.642667-2.048 1.130667 0.085333 1.962667-0.768 1.92-1.92-0.064-1.813333 1.066667-2.005333 2.432-2.133333 2.986667-0.256 3.392-0.768 2.922667-3.584 1.728 0 3.434667 0.042667 5.12-0.021334 1.664-0.042667 3.264-0.277333 2.944 2.325334-0.149333 1.28 1.088 1.28 2.048 1.258666 1.088-0.021333 2.026667-0.064 1.536 1.621334-0.298667 1.024 0.661333 1.813333 1.621333 1.898666 3.178667 0.32 2.944 3.157333 3.114667 4.970667 0.170667 1.792 0.704 2.197333 2.133333 2.24 1.088 0.021333 1.621333 0.149333 1.344 1.6-0.234667 1.322667 0.768 2.688 2.197333 2.304 1.728-0.469333 1.706667 0.341333 1.792 1.472 0 0.085333-0.021333 0.192 0 0.256 1.301333 1.984 4.565333 2.112 4.928 5.098667 0.021333 0.192 1.664-0.085333 1.621334-1.002667-0.042667-1.450667 1.024-2.56 1.045333-3.84 0.021333-1.514667 0.597333-1.941333 1.962667-1.770667 1.130667 0.149333 1.216-0.597333 1.194666-1.450666-0.021333-1.024 0.021333-2.048 0-3.072-0.021333-1.429333-0.341333-2.88 2.026667-2.752 1.002667 0.064 1.536-1.066667 1.6-2.261334 0.064-1.194667-0.853333-3.029333 1.557333-3.114666-0.512-2.133333 2.944-2.666667 2.026667-5.013334-0.106667-0.277333 0-0.938667 0.106667-0.96 4.586667-0.981333 2.858667-4.885333 3.648-7.68 1.664 0.341333 2.346667 0.298667 2.730666-2.133333 0.341333-2.154667 0.448-4.309333 0.661334-6.464 0.106667-1.088 0.682667-1.472 1.685333-1.450667 0.512 0 1.024-0.064 1.536-0.085333-0.661333-3.776 4.672-4.714667 4.053333-8.618667-0.192-1.237333-1.216-3.669333 1.877334-3.434666-0.362667-1.642667 1.685333-2.197333 1.642666-3.690667-0.021333-1.514667 0.64-2.517333 2.24-2.56 1.408-0.042667 1.642667-0.682667 1.408-1.941333-0.192-0.981333-0.192-2.069333-0.021333-3.050667 0.128-0.704 0.661333-1.898667 1.024-1.898667 2.602667 0 2.752-1.536 2.517333-3.477333-0.021333-0.234667 0.042667-0.661333 0.170667-0.704 3.52-1.28 2.453333-4.970667 3.84-7.36 0.704-1.216 0.170667-3.178667 2.474667-3.349333 0.746667-0.042667 0.64-1.066667 0.661333-1.749334 0-1.28 0-2.56 0.021333-3.84 0-1.024 0-1.770667 1.536-1.408 1.258667 0.277333 1.770667-0.789333 2.090667-2.005333 0.618667-2.346667 0.384-4.714667 0.533333-7.914667 0.704 2.837333 2.090667 2.410667 2.261334 0.96 0.234667-1.834667 2.730667-2.666667 1.834666-4.778666-0.042667-0.085333 0.32-0.469333 0.448-0.448 2.624 0.213333 2.325333-1.749333 2.538667-3.349334 0.042667-0.405333 0.042667-1.024 0.277333-1.152 2.837333-1.664 3.349333-4.352 3.285334-7.296-0.021333-1.408 0.426667-2.794667 1.813333-2.88 2.005333-0.106667 1.834667-1.237333 1.792-2.538666-0.021333-0.938667 0.085333-1.877333-0.021333-2.816-0.106667-1.045333 0.384-1.536 1.258666-1.877334 0.896-0.362667 2.112 0.298667 2.752-0.896 0.533333-1.045333-0.554667-1.898667-0.298666-3.050666 1.792 0.533333 3.178667 0.426667 2.986666-2.005334-0.128-1.536 1.578667-2.624 1.066667-4.309333-0.106667-0.384 0.32-0.618667 0.661333-0.576 3.157333 0.448 2.261333-1.834667 2.325334-3.434667 0.064-1.941333-0.362667-4.138667 2.794666-3.818666 0.874667 0.085333 0.768-0.725333 0.789334-1.301334 0.021333-1.109333-0.128-2.24 0.064-3.328 0.213333-1.194667 0.213333-2.624 2.261333-2.602666 1.194667 0.021333 1.877333-0.853333 1.6-2.496-0.341333-1.962667-0.384-3.712 2.197333-5.141334 1.536-0.853333 2.261333-3.626667 4.544-4.586666 0.490667-0.213333 0.32-1.898667 0.448-2.858667 0.256-1.898667 0.170667-3.584 2.88-3.349333 0.661333 0.064 0.896-0.874667 0.874667-1.621334-0.021333-1.194667 0.021333-2.389333 0-3.584-0.021333-1.088 0.298667-1.92 1.557333-1.813333 1.834667 0.128 2.048-0.917333 2.090667-2.389333 0.021333-0.810667-0.874667-2.773333 1.514667-1.834667 0.170667 0.064 0.874667-0.490667 0.874666-0.746667-0.106667-2.346667 2.176-4.245333 0.853334-6.933333 1.493333 0.490667 3.050667 1.557333 2.858666-0.917333-0.106667-1.493333 0.768-1.962667 1.941334-2.026667 1.173333-0.085333 1.984-0.661333 1.578666-1.728-0.64-1.706667 1.621333-1.493333 1.536-2.752-0.106667-1.386667 0.128-2.389333 2.005334-2.325333 0.853333 0.042667 1.173333-1.173333 1.088-2.005334-0.170667-1.408 0.576-2.645333 0.554666-3.989333 0-0.533333 0.042667-1.002667 0.768-1.066667 2.048-0.170667 2.602667-1.386667 2.325334-3.264-0.106667-0.704-0.213333-1.749333 1.173333-0.981333 0.682667 0.384 1.450667-0.469333 1.386667-0.704-0.469333-2.005333 2.346667-3.221333 1.216-5.376-0.618667-1.173333 0.021333-1.536 1.130666-1.450667 1.749333 0.149333 3.242667-0.576 4.714667-1.237333 0-1.258667-1.472-0.448-1.685333-1.856 0.021333 0.170667 0.192 0.042667 0.469333 0.042667 5.781333-0.32 6.293333 0.256 6.442667 6.101333 0.085333 3.413333-0.896 6.741333-0.554667 10.154667 0.085333 1.002667-0.362667 1.728-1.450667 1.642666-2.026667-0.170667-2.176 1.024-2.133333 2.581334 0.064 2.197333 0.021333 4.416 0.021333 6.805333-0.725333-0.597333-0.725333-1.877333-1.792-1.557333-0.725333 0.234667-0.512 1.173333-0.810666 1.706666-1.6 2.816-0.704 5.866667-1.045334 8.917334-1.877333-1.301333-2.602667 0.106667-2.88 1.472-0.277333 1.408-0.810667 2.752-1.024 4.117333-0.213333 1.365333-0.682667 1.749333-1.898666 1.6-1.28-0.170667-1.322667 0.661333-1.322667 1.6 0.021333 3.072 0 6.144 0 9.301333-1.002667 0.085333-2.090667-0.597333-2.858667 0.149334-0.853333 0.810667-0.746667 2.005333-0.725333 3.114666 0.021333 2.816 0 5.632 0.021333 8.448 0.021333 1.514667-0.618667 2.496-2.197333 2.474667-2.176-0.042667-2.133333 1.408-1.792 2.773333 0.554667 2.154667 1.045333 4.096-2.090667 4.458667-0.426667 0.042667-0.597333 0.362667-0.576 0.704 0.149333 2.368-1.28 4.970667-2.432 5.888-3.050667 2.474667-1.109333 5.290667-1.642666 7.850667-0.234667 1.152-0.234667 2.026667-1.728 1.429333-0.170667-0.064-0.661333 0.149333-0.661334 0.149333 0.490667 2.069333-2.368 2.944-1.664 5.397334 0.597333 2.048 0 4.458667-0.106666 6.698666-0.021333 0.298667-0.234667 0.874667-0.341334 0.874667-4.309333-0.341333-2.24 3.370667-3.157333 5.12-0.469333 0.917333 0.597333 2.752-1.792 2.304-0.469333-0.085333-0.896 0.704-0.832 1.386667 0.085333 1.045333-0.661333 1.984-0.725333 2.794666-0.192 2.069333-0.853333 3.072-2.986667 3.285334-1.152 0.106667-0.896 1.152-0.725333 2.005333 0.554667 2.922667 0.896 5.930667-0.192 8.725333-0.533333 1.365333-1.408 2.922667-2.837334 3.669334-0.917333 0.469333-0.682667 1.066667-0.682666 1.642666-0.042667 2.218667-0.021333 4.437333-0.021334 6.741334-1.450667-0.768-1.984-1.194667-2.752 1.066666-1.216 3.562667-0.341333 7.082667-0.981333 10.645334-0.576-0.512-1.088-1.002667-1.941333-1.792 0.533333 2.816-2.176 4.352-1.557334 6.826666 0.021333 0.106667-0.149333 0.384-0.256 0.405334-4.373333 0.576-2.645333 4.202667-3.2 6.613333-0.277333 1.130667 0.042667 2.389333-0.085333 3.562667-0.106667 0.896 0.341333 2.56-1.664 1.792-0.362667 1.450667-1.941333 2.325333-1.898667 4.010666 0.064 2.133333-0.021333 4.266667 0.021334 6.4 0.042667 1.706667-0.469333 2.837333-2.389334 2.837334-1.770667 0-1.962667 1.066667-1.557333 2.389333 0.618667 2.069333 0.341333 4.096 0.192 6.186667-1.216 0.106667-0.576-1.792-1.834667-1.365334-1.045333 0.341333-0.533333 1.322667-0.725333 1.962667-0.490667 1.578667-1.898667 2.986667-0.938667 4.928 0.277333 0.554667-0.234667 1.152-1.237333 0.874667-1.408-0.426667-1.813333 0.512-1.749333 1.706666 0.106667 2.133333-0.106667 4.202667-0.725334 6.250667-0.341333 1.152-0.341333 2.602667-2.24 2.218667-0.533333-0.106667-1.130667 0.448-1.045333 0.896 0.362667 2.005333-0.981333 3.818667-0.32 5.994666 0.490667 1.621333 0.746667 4.010667-2.218667 4.330667-0.96 0.106667-1.002667 0.874667-1.173333 1.685333-0.576 2.602667-0.448 5.226667-0.490667 7.829334 0 0.426667 0.106667 0.981333-0.106666 1.258666-3.349333 4.309333-3.370667 4.309333-3.584 7.914667-1.578667-1.088-2.602667-0.96-2.432 1.194667 0.128 1.642667-1.450667 2.794667-1.152 4.565333 0.149333 0.917333-1.024 0.576-1.621334 0.597333-1.792 0.042667-2.304 1.130667-2.026666 2.624 0.192 0.96 0.362667 1.493333-0.917334 1.024-0.213333-0.085333-0.512-0.021333-0.768-0.021333-0.576 0-1.237333 0.490667-1.194666 0.789333 0.576 3.008-3.349333 2.88-3.498667 5.077334-0.064 1.002667-0.469333 1.344-0.981333 1.92-0.448 0.512-1.514667 0.832-0.981334 1.813333 0.618667 1.130667-0.106667 1.088-0.832 1.130667-0.597333 0.021333-1.493333-0.106667-1.578666 0.512-0.384 3.306667-4.437333 4.906667-3.946667 8.597333 0.192 1.472-0.405333 2.112-2.005333 2.197333-1.792 0-1.984 0.768-1.28 3.669334zM191.210667 209.856c0.469333-3.093333 0.298667-3.242667-4.074667-3.669333 0.490667-2.965333 0.234667-3.306667-2.538667-3.434667-0.853333-0.042667-2.005333 0.554667-1.514666-1.472 0.362667-1.429333-1.28-2.112-2.794667-2.112-0.896 0-1.856 0.341333-1.28-1.429333 0.362667-1.130667-0.938667-2.005333-2.24-2.133334-0.832-0.064-1.685333-0.021333-2.816-0.021333 1.386667-2.496 0.021333-3.242667-1.898667-3.584-0.896-0.149333-1.472-0.128-1.173333-1.493333 0.362667-1.728-1.344-1.834667-2.538667-2.090667-2.005333-0.426667-3.925333-0.597333-3.584-3.626667 0.192-1.728 0.704-1.984 2.24-2.069333 16.277333-1.024 32.576-0.298667 48.853334-0.042667 3.669333 0.064 7.338667 0 11.008 0.128 1.194667 0.042667 3.029333-0.874667 3.178666 1.642667 0.042667 0.64 1.194667 0.362667 1.834667 0.384 3.050667 0.021333 6.101333 0.021333 9.173333 0.533333h-5.162666c-0.789333 0-1.770667 0-1.770667 0.938667 0 0.789333 0.96 1.045333 1.728 1.088 2.88 0.106667 5.76-0.170667 8.597333 0.533333 1.557333 0.384 3.712-0.341333 3.690667 2.581334 0 1.194667 1.365333 1.536 2.538667 1.514666h7.125333c-1.642667 2.474667 0.277333 2.986667 1.813333 3.498667 0.853333 0.277333 1.877333-0.042667 2.794667 0.106667 1.002667 0.192 2.816-1.130667 2.56 1.749333-0.128 1.493333 2.154667 2.112 3.925333 1.792-0.576 2.538667 0.106667 3.52 2.688 3.584 1.194667 0.021333 1.984 0.149333 1.792 1.642667-0.170667 1.386667 0.469333 2.154667 1.92 1.962666 1.408-0.170667 1.834667 0.469333 1.664 1.749334-0.042667 0.32 0.021333 0.96 0.085334 0.96 2.688 0.298667 2.709333 3.093333 4.245333 4.394666 0.597333 0.490667 0.661333 0.896 0.938667 1.450667 1.152 2.218667 2.56 4.437333 4.373333 6.101333 0.832 0.768 1.621333 1.066667 1.621333 2.346667-0.042667 7.936-0.021333 15.872-0.021333 23.914667-0.917333-0.085333-0.042667-1.92-1.386667-1.344-0.874667 0.384-1.834667 0.469333-1.770666 1.941333 0.064 1.493333-0.597333 2.730667-2.517334 2.517333-0.896-0.085333-1.664 0.469333-1.429333 1.344 0.597333 2.24-0.938667 1.685333-2.026667 1.685334-1.664 0.021333-3.285333 0.085333-3.626666 2.176-0.064 0.405333 0.32 0.874667 0.448 1.194666-4.202667 0.832-8.490667 0.789333-12.778667 0.192-0.405333-0.064-1.386667 0.490667-1.130667-0.597333 0.64-2.730667-1.472-2.56-3.008-2.922667-0.810667-0.192-1.706667-0.021333-2.56-0.064-0.362667-0.021333-0.810667 0.128-0.64-0.64 0.576-2.645333-1.088-3.008-3.114666-2.922666-0.938667 0.042667-1.877333 0-3.093334 0 0.832-1.408 1.194667-2.602667-0.725333-3.306667-1.429333-0.533333-2.88 0.021333-4.266667-0.384 0.341333-2.858667 0.341333-2.858667-6.869333-3.648 0.554667-2.88 0.149333-3.306667-3.392-3.498667 0.682667-2.944 0.256-3.477333-2.773333-3.498666-0.938667 0-1.877333 0.064-2.816-0.021334-1.002667-0.085333-1.941333-0.170667-1.514667-1.728 0.362667-1.258667-0.448-1.898667-1.728-1.813333-1.024 0.064-1.984-0.170667-2.965333-0.469333-0.853333-0.256-1.898667 0.384-1.216-1.514667 0.405333-1.109333-1.642667-1.6-2.752-2.048-0.661333-0.256-1.514667-0.106667-2.282667-0.149333 0.490667-2.986667 0.170667-3.221333-4.586667-3.648 0.469333-1.685333 0.469333-2.944-1.898666-3.008-0.874667-0.021333-2.496 0.256-2.218667-2.133334 0.170667-1.472-2.325333-1.813333-3.946667-1.856-1.002667-0.021333-1.706667 0.170667-1.514666-1.493333 0.213333-1.92-1.578667-2.048-3.050667-2.112-1.109333-0.042667-2.645333 0.512-2.005333-1.728 0.213333-0.725333-0.490667-1.066667-1.194667-1.386667-1.408-0.661333-2.944-0.341333-4.629333-0.533333zM152.256 427.52c-0.768 1.92-0.042667 3.221333 2.005333 3.541333 0.917333 0.149333 1.877333 0.021333 2.816 0.064 0.384 0.021333 1.045333-0.128 1.024 0.426667-0.192 4.352 3.306667 2.496 5.269334 3.306667-0.213333 3.008 0.192 3.264 5.632 3.477333-0.192 3.178667 0.106667 3.349333 6.144 3.584-0.768 2.56-0.064 3.157333 4.458666 3.712-0.576 2.645333-0.064 3.328 2.624 3.370667 1.024 0.021333 2.048 0 3.072 0.021333 0.576 0.021333 1.301333-0.085333 0.874667 0.938667-0.917333 2.154667 0.682667 2.624 2.112 2.56 2.154667-0.085333 2.538667 0.725333 2.794667 2.773333 0.725333 5.845333 0.448 11.648-0.064 17.472-0.064 0.832-0.512 1.344-0.896 1.984-0.469333 0.789333-2.666667 1.002667-1.045334 2.624-0.234667 0.192-0.448 0.512-0.682666 0.533333-2.154667 0.085333-2.218667 1.450667-2.048 3.072 0.021333 0.298667 0.213333 1.088-0.32 0.96-2.496-0.64-2.218667 1.045333-2.218667 2.496 0 1.066667-0.917333 1.237333-1.536 1.344-1.856 0.32-2.56 1.109333-1.365333 3.157334-1.066667 0-1.813333 0.085333-2.56-0.021334-2.133333-0.277333-2.837333 0.576-2.773334 2.730667 0.085333 3.498667-1.002667 4.437333-4.437333 4.458667h-7.424c0.981333-2.581333-0.149333-3.434667-4.586667-3.669334 1.002667-2.624 0.128-3.306667-4.672-3.605333 0.213333-3.008 0.213333-3.008-6.762666-3.626667 0.426667-2.730667 0-3.370667-2.624-3.413333-1.941333-0.021333-2.816-0.832-2.730667-2.773333 0.042667-1.024 0-2.048 0-3.072 0-0.661333-0.298667-1.237333-0.981333-1.258667-0.682667-0.021333-1.024 0.533333-1.024 1.194667-0.021333 0.917333 0 1.813333-0.192 2.730666-0.405333-1.813333-0.576-3.669333-0.128-5.44 0.277333-1.130667 0-1.984-0.917334-2.133333-3.093333-0.448-2.901333-3.093333-3.285333-5.056-0.298667-1.578667-0.682667-2.24-2.325333-2.218667-1.066667 0.021333-2.112-0.405333-3.178667-0.64 1.237333-2.24-2.645333-2.389333-1.834667-4.650666 0.490667-1.365333-0.149333-2.538667-1.984-2.368-0.768 0.085333-1.109333-0.341333-1.002666-1.066667 0.32-2.282667-0.917333-2.88-2.944-2.453333 0.554667-2.837333 0.106667-3.541333-2.432-3.605334-1.173333-0.021333-1.92-0.106667-1.856-1.621333 0.042667-0.96-0.256-2.069333-1.685334-2.026667-0.234667 0-0.469333-0.149333-0.704-0.234666 1.365333-2.688-3.541333-2.944-2.176-5.632-2.005333-1.002667-2.688-3.2-4.074666-4.522667-0.96-0.917333-3.050667-0.661333-2.666667-2.986667 0.042667-0.213333-0.405333-0.725333-0.618667-0.725333-4.416 0.170667-2.496-3.925333-3.84-5.802667-0.277333-0.405333-0.341333-1.493333-0.768-1.429333-2.837333 0.512-2.154667-1.642667-2.304-2.986667-0.106667-1.002667-0.448-1.386667-1.386666-1.258666-1.578667 0.234667-1.856-0.618667-1.749334-1.92 0.085333-1.109333 0.042667-2.218667 0-3.328-0.021333-0.405333-0.128-1.152-0.256-1.173334-2.858667-0.234667-1.578667-2.453333-1.813333-3.84-0.768-4.416-0.277333-8.832 0-13.269333 0.064-1.237333 0.448-1.621333 1.642667-1.578667 2.048 0.085333 4.096 0.021333 6.144 0.021334-0.192 3.072 0.234667 3.498667 3.541333 3.648-0.490667 3.136-0.490667 3.136 5.397333 3.690666-0.448 2.88-0.448 2.88 6.698667 3.584-0.512 2.794667-0.021333 3.349333 2.88 3.456 1.194667 0.042667 2.901333-0.810667 2.602667 1.941334-0.170667 1.450667 1.834667 1.621333 3.221333 1.621333 1.365333 0.021333 3.072-0.426667 2.304 2.090667-0.256 0.832 0.384 1.429333 1.322667 1.472 0.682667 0.021333 1.621333-0.256 2.005333 0.085333 0.938667 0.874667 3.477333-0.661333 3.136 2.368-0.128 1.173333 1.898667 1.898667 3.52 1.664 0.725333-0.106667 1.6-0.384 1.322667 1.152-0.213333 1.216 0.874667 1.898667 2.176 1.898667 1.194667-0.021333 2.24 0.789333 3.477333 0.554666 0.384-0.064 0.917333-0.021333 0.810667 0.64-0.448 2.794667 1.386667 2.922667 3.349333 2.922667 0.704 0.064 1.472 0.064 2.496 0.064zM193.834667 469.184c-1.024-3.690667-0.896-7.402667-0.192-11.114667 0.362667 3.690667-0.469333 7.402667 0.192 11.114667z" p-id="1380"></path></svg>